<svg width="26" height="26" viewBox="0 0 26 26" fill="none" xmlns="http://www.w3.org/2000/svg">
<path d="M11.9146 17.3333L17.3312 13L11.9146 8.66663V11.9166H2.16455V14.0833H11.9146V17.3333Z" fill="#00458F"/>
<path d="M14.0822 3.2489C11.4768 3.2489 9.02845 4.26398 7.18787 6.10565L8.7197 7.63748C10.1519 6.20532 12.0564 5.41557 14.0822 5.41557C16.108 5.41557 18.0125 6.20532 19.4447 7.63748C20.8769 9.06965 21.6666 10.9742 21.6666 13C21.6666 15.0258 20.8769 16.9303 19.4447 18.3625C18.0125 19.7947 16.108 20.5844 14.0822 20.5844C12.0564 20.5844 10.1519 19.7947 8.7197 18.3625L7.18787 19.8943C9.02845 21.736 11.4768 22.7511 14.0822 22.7511C16.6876 22.7511 19.136 21.736 20.9765 19.8943C22.8182 18.0537 23.8333 15.6054 23.8333 13C23.8333 10.3946 22.8182 7.94623 20.9765 6.10565C19.136 4.26398 16.6876 3.2489 14.0822 3.2489Z" fill="#00458F"/>
</svg>
