<svg width="40" height="40" viewBox="0 0 40 40" fill="none" xmlns="http://www.w3.org/2000/svg">
<rect width="40" height="40" rx="3" fill="#9EA5A8"/>
<path d="M29.8532 35.1233V37.4081C26.9455 39.0579 23.5831 40 20.0003 40C17.8885 40 15.8542 39.6725 13.9432 39.0662C12.6126 38.6441 11.3416 38.0856 10.1471 37.4081V35.1233C10.1471 31.2238 13.1503 28.0246 16.9717 27.7161C17.1725 27.6996 17.3749 27.6913 17.58 27.6913H22.4197C22.9919 27.6913 23.5489 27.7551 24.0836 27.8775C27.388 28.6334 29.8532 31.5909 29.8532 35.1233Z" fill="#EBEAED"/>
<path d="M22.652 24.8282V28.0826C22.652 29.274 21.8665 30.2811 20.7843 30.6155C20.5368 30.6921 20.2725 30.7339 19.9997 30.7339C18.5352 30.7339 17.3483 29.5468 17.3483 28.0826V24.8282H22.652Z" fill="#EBEAED"/>
<path d="M12.7258 19.4949C12.7258 20.7224 11.8292 21.7404 10.6549 21.9293C10.5264 21.9501 10.3946 21.9608 10.2597 21.9608C8.8974 21.9608 7.79388 20.8572 7.79388 19.4949C7.79388 18.1326 8.8974 17.0288 10.2597 17.0288C10.3946 17.0288 10.5264 17.0398 10.6549 17.0605C11.8292 17.2495 12.7258 18.2672 12.7258 19.4949V19.4949Z" fill="#EBEAED"/>
<path d="M27.2742 19.4949C27.2742 20.7224 28.1708 21.7404 29.3451 21.9293C29.4736 21.9501 29.6054 21.9608 29.7403 21.9608C31.1026 21.9608 32.2061 20.8572 32.2061 19.4949C32.2061 18.1326 31.1026 17.0288 29.7403 17.0288C29.6054 17.0288 29.4736 17.0398 29.3451 17.0605C28.1708 17.2495 27.2742 18.2672 27.2742 19.4949V19.4949Z" fill="#EBEAED"/>
<path d="M27.2742 19.4949C27.2742 20.7224 28.1708 21.7404 29.3451 21.9293C29.5584 21.1536 29.6725 20.3372 29.6725 19.4949C29.6725 18.6523 29.5584 17.836 29.3451 17.0605C28.1708 17.2495 27.2742 18.2672 27.2742 19.4949Z" fill="#EBEAED"/>
<path d="M29.1751 14.6906V18.1845C29.1751 22.7502 25.8395 26.5378 21.4725 27.2406C21.4575 27.243 21.4423 27.2455 21.4273 27.2482C20.9628 27.3224 20.4861 27.359 19.9997 27.359C14.9329 27.359 10.8249 23.2513 10.8249 18.1845V14.6906C10.8249 13.6237 11.0071 12.5983 11.3434 11.6455C12.598 8.07495 16.0004 5.51514 19.9997 5.51514H20.0006C20.4861 5.51514 20.9637 5.55267 21.4291 5.62592C25.8176 6.31165 29.1751 10.1093 29.1751 14.6906V14.6906Z" fill="#EBEAED"/>
<path d="M30.6213 19.4949C30.6213 19.9817 30.2267 20.3763 29.74 20.3763C29.2532 20.3763 28.8586 19.9817 28.8586 19.4949C28.8586 19.0082 29.2532 18.6136 29.74 18.6136C30.2267 18.6136 30.6213 19.0082 30.6213 19.4949V19.4949Z" fill="#EBEAED"/>
</svg>
